<mxfile host="app.diagrams.net" modified="2024-04-18T16:07:23.754Z" agent="Mozilla/5.0 (X11; Linux x86_64) AppleWebKit/537.36 (KHTML, like Gecko) Chrome/123.0.0.0 Safari/537.36" etag="KMMIuithURGPHv5Fo2cK" version="24.2.5" type="github">
  <diagram name="第 1 页" id="USIwD-ererNIewF62LA8">
    <mxGraphModel dx="1808" dy="1168" grid="0" gridSize="10" guides="1" tooltips="1" connect="1" arrows="1" fold="1" page="0" pageScale="1" pageWidth="827" pageHeight="1169" math="0" shadow="0">
      <root>
        <mxCell id="0" />
        <mxCell id="1" parent="0" />
        <mxCell id="Ma3AO_Hs4DGFiBSo4ET9-1" value="" style="image;points=[];aspect=fixed;html=1;align=center;shadow=0;dashed=0;image=img/lib/allied_telesis/buildings/Building_Cluster.svg;" vertex="1" parent="1">
          <mxGeometry x="139" y="145" width="121.2" height="111" as="geometry" />
        </mxCell>
        <mxCell id="Ma3AO_Hs4DGFiBSo4ET9-2" value="智慧校园" style="text;html=1;align=center;verticalAlign=middle;resizable=0;points=[];autosize=1;strokeColor=none;fillColor=none;fontSize=20;" vertex="1" parent="1">
          <mxGeometry x="150.6" y="256" width="98" height="36" as="geometry" />
        </mxCell>
        <mxCell id="Ma3AO_Hs4DGFiBSo4ET9-4" value="" style="image;aspect=fixed;html=1;points=[];align=center;fontSize=12;image=img/lib/azure2/management_governance/Metrics.svg;" vertex="1" parent="1">
          <mxGeometry x="-80" y="281.16" width="54.800000000000004" height="68" as="geometry" />
        </mxCell>
        <mxCell id="Ma3AO_Hs4DGFiBSo4ET9-5" value="实时信息反馈与分析" style="text;html=1;align=center;verticalAlign=middle;resizable=0;points=[];autosize=1;strokeColor=none;fillColor=none;fontSize=20;" vertex="1" parent="1">
          <mxGeometry x="-148" y="358" width="198" height="36" as="geometry" />
        </mxCell>
        <mxCell id="Ma3AO_Hs4DGFiBSo4ET9-6" value="" style="image;aspect=fixed;html=1;points=[];align=center;fontSize=12;image=img/lib/azure2/storage/Azure_Fileshare.svg;" vertex="1" parent="1">
          <mxGeometry x="-129" y="-2" width="76" height="76" as="geometry" />
        </mxCell>
        <mxCell id="Ma3AO_Hs4DGFiBSo4ET9-7" value="&lt;font style=&quot;font-size: 20px;&quot;&gt;信息管理&lt;/font&gt;" style="text;strokeColor=none;fillColor=none;html=1;align=center;verticalAlign=middle;whiteSpace=wrap;rounded=0;fontSize=16;" vertex="1" parent="1">
          <mxGeometry x="-132" y="72" width="97" height="46" as="geometry" />
        </mxCell>
        <mxCell id="Ma3AO_Hs4DGFiBSo4ET9-8" value="" style="image;aspect=fixed;html=1;points=[];align=center;fontSize=12;image=img/lib/azure2/management_governance/Education.svg;" vertex="1" parent="1">
          <mxGeometry x="405" y="6" width="77.31" height="60" as="geometry" />
        </mxCell>
        <mxCell id="Ma3AO_Hs4DGFiBSo4ET9-9" value="个性化教育" style="text;strokeColor=none;fillColor=none;html=1;align=center;verticalAlign=middle;whiteSpace=wrap;rounded=0;fontSize=20;" vertex="1" parent="1">
          <mxGeometry x="387.99" y="78" width="111.34" height="30" as="geometry" />
        </mxCell>
        <mxCell id="Ma3AO_Hs4DGFiBSo4ET9-10" value="" style="image;aspect=fixed;html=1;points=[];align=center;fontSize=12;image=img/lib/azure2/other/Defender_Engineering_Station.svg;" vertex="1" parent="1">
          <mxGeometry x="401" y="281.16" width="68" height="62.839999999999996" as="geometry" />
        </mxCell>
        <mxCell id="Ma3AO_Hs4DGFiBSo4ET9-12" value="数字化进程" style="text;strokeColor=none;fillColor=none;html=1;align=center;verticalAlign=middle;whiteSpace=wrap;rounded=0;fontSize=20;" vertex="1" parent="1">
          <mxGeometry x="380.31" y="350" width="102" height="30" as="geometry" />
        </mxCell>
        <mxCell id="Ma3AO_Hs4DGFiBSo4ET9-13" value="" style="shape=flexArrow;endArrow=classic;html=1;rounded=0;fontSize=12;startSize=8;endSize=8;curved=1;fontColor=#3ca5d3;labelBackgroundColor=#99FF33;labelBorderColor=none;textShadow=0;fillColor=#dae8fc;strokeColor=#6c8ebf;" edge="1" parent="1">
          <mxGeometry width="50" height="50" relative="1" as="geometry">
            <mxPoint x="102" y="168" as="sourcePoint" />
            <mxPoint x="50" y="129" as="targetPoint" />
          </mxGeometry>
        </mxCell>
        <mxCell id="Ma3AO_Hs4DGFiBSo4ET9-14" value="" style="shape=flexArrow;endArrow=classic;html=1;rounded=0;fontSize=12;startSize=8;endSize=8;curved=1;fontColor=#0279d4;labelBackgroundColor=#3399FF;fillColor=#dae8fc;strokeColor=#6c8ebf;" edge="1" parent="1">
          <mxGeometry width="50" height="50" relative="1" as="geometry">
            <mxPoint x="291" y="166" as="sourcePoint" />
            <mxPoint x="347" y="124" as="targetPoint" />
          </mxGeometry>
        </mxCell>
        <mxCell id="Ma3AO_Hs4DGFiBSo4ET9-16" value="" style="shape=flexArrow;endArrow=classic;html=1;rounded=0;fontSize=12;startSize=8;endSize=8;curved=1;fillColor=#dae8fc;strokeColor=#6c8ebf;" edge="1" parent="1">
          <mxGeometry width="50" height="50" relative="1" as="geometry">
            <mxPoint x="297" y="256" as="sourcePoint" />
            <mxPoint x="347" y="303" as="targetPoint" />
          </mxGeometry>
        </mxCell>
        <mxCell id="Ma3AO_Hs4DGFiBSo4ET9-17" value="" style="shape=flexArrow;endArrow=classic;html=1;rounded=0;fontSize=12;startSize=8;endSize=8;curved=1;fillColor=#dae8fc;strokeColor=#6c8ebf;" edge="1" parent="1">
          <mxGeometry width="50" height="50" relative="1" as="geometry">
            <mxPoint x="100" y="256" as="sourcePoint" />
            <mxPoint x="49" y="299.84" as="targetPoint" />
          </mxGeometry>
        </mxCell>
      </root>
    </mxGraphModel>
  </diagram>
</mxfile>
